<svg xmlns="http://www.w3.org/2000/svg" viewBox="0 0 16.438 17.617"><defs><style>.a{fill:none;stroke:#757575;stroke-linecap:round;stroke-linejoin:round;stroke-width:1.6px;}</style></defs><path class="a" d="M7.327,14.69c-3.8,1.141-3.8-1.9-5.327-2.283m10.653,4.566V14.028a2.564,2.564,0,0,0-.715-1.986c2.389-.266,4.9-1.172,4.9-5.327A4.139,4.139,0,0,0,15.7,3.863,3.858,3.858,0,0,0,15.628.994s-.9-.266-2.975,1.126a10.181,10.181,0,0,0-5.327,0C5.249.727,4.351.994,4.351.994a3.858,3.858,0,0,0-.068,2.869A4.139,4.139,0,0,0,3.141,6.739c0,4.124,2.511,5.03,4.9,5.327a2.564,2.564,0,0,0-.715,1.963v2.945" transform="translate(-1.2 -0.156)"/></svg>