<svg xmlns="http://www.w3.org/2000/svg" viewBox="0 0 16.463 17.628"><defs><style>.a{fill:none;stroke:#757575;stroke-linecap:round;stroke-linejoin:round;stroke-width:1.6px;}</style></defs><g transform="translate(-1.2 -0.427)"><path class="a" d="M10.093,1.4l5.945,2.973a1.486,1.486,0,0,1,.825,1.33v7.082a1.486,1.486,0,0,1-.825,1.33l-5.945,2.973a1.486,1.486,0,0,1-1.33,0L2.817,14.111A1.486,1.486,0,0,1,2,12.774V5.7a1.486,1.486,0,0,1,.825-1.33L8.77,1.4a1.486,1.486,0,0,1,1.323,0Z" transform="translate(0)"/><path class="a" d="M2.32,6.16l7.194,3.6,7.194-3.6" transform="translate(-0.082 -1.263)"/><line class="a" y1="8.739" transform="translate(9.431 8.493)"/><line class="a" x2="7.431" y2="3.716" transform="translate(5.716 2.92)"/></g></svg>