<?xml version="1.0" encoding="iso-8859-1"?>
<!-- Generator: Adobe Illustrator 19.0.0, SVG Export Plug-In . SVG Version: 6.00 Build 0)  -->
<svg version="1.1" id="Layer_1" xmlns="http://www.w3.org/2000/svg" xmlns:xlink="http://www.w3.org/1999/xlink" x="0px" y="0px"
	 viewBox="0 0 512 512" style="enable-background:new 0 0 512 512;" xml:space="preserve">
<circle style="fill:#6D5741;" cx="256" cy="256" r="256"/>
<path style="fill:#57442F;" d="M509.618,290.928L336.158,117.469l-116.072,4.282l-34.409,128.284l-71.899,99.918l161.339,161.339
	C395.941,502.37,493.427,409.588,509.618,290.928z"/>
<rect x="245.743" y="117.467" style="fill:#D35933;" width="90.402" height="248.622"/>
<rect x="291.047" y="117.467" style="fill:#B54324;" width="45.097" height="248.622"/>
<circle style="fill:#F4E3C3;" cx="290.961" cy="320.888" r="22.6"/>
<g>
	<rect x="258.086" y="140.067" style="fill:#FFC61B;" width="65.75" height="22.6"/>
	<rect x="258.086" y="173.287" style="fill:#FFC61B;" width="65.75" height="22.6"/>
</g>
<path style="fill:#FED8B2;" d="M313.556,320.884c0-12.448-10.066-22.542-22.502-22.597v45.194
	C303.49,343.426,313.556,333.333,313.556,320.884z"/>
<g>
	<rect x="291.047" y="140.067" style="fill:#EAA22F;" width="32.771" height="22.6"/>
	<rect x="291.047" y="173.287" style="fill:#EAA22F;" width="32.771" height="22.6"/>
	
		<rect x="134.578" y="110.998" transform="matrix(-0.985 -0.1726 0.1726 -0.985 316.2458 498.1183)" style="fill:#EAA22F;" width="90.402" height="248.624"/>
</g>
<polygon style="fill:#E09112;" points="245.75,120.673 200.311,112.709 158.613,357.81 202.826,365.561 "/>
<circle style="fill:#F4E3C3;" cx="166.098" cy="313.234" r="22.6"/>
<path style="fill:#FED8B2;" d="M170.008,290.969c-0.009-0.002-0.016-0.002-0.024-0.002l-7.58,44.553
	c12.221,2.031,23.821-6.158,25.964-18.385C190.524,304.838,182.303,293.124,170.008,290.969z"/>
<g>
	
		<rect x="162.505" y="134.958" transform="matrix(-0.985 -0.1726 0.1726 -0.985 362.5843 324.0434)" style="fill:#FFC61B;" width="65.75" height="22.601"/>
	
		<rect x="156.766" y="167.677" transform="matrix(-0.985 -0.1726 0.1726 -0.985 345.5455 387.9997)" style="fill:#FFC61B;" width="65.75" height="22.601"/>
</g>
<g>
	<polygon style="fill:#EAA22F;" points="229.705,140.809 196.52,134.992 192.729,157.274 225.802,163.071 	"/>
	<polygon style="fill:#EAA22F;" points="223.97,173.527 190.948,167.739 187.158,190.021 220.067,195.789 	"/>
</g>
<g>
</g>
<g>
</g>
<g>
</g>
<g>
</g>
<g>
</g>
<g>
</g>
<g>
</g>
<g>
</g>
<g>
</g>
<g>
</g>
<g>
</g>
<g>
</g>
<g>
</g>
<g>
</g>
<g>
</g>
</svg>
