<?xml version="1.0" encoding="iso-8859-1"?>
<!-- Generator: Adobe Illustrator 19.0.0, SVG Export Plug-In . SVG Version: 6.00 Build 0)  -->
<svg version="1.1" id="Layer_1" xmlns="http://www.w3.org/2000/svg" xmlns:xlink="http://www.w3.org/1999/xlink" x="0px" y="0px"
	 viewBox="0 0 512 512" style="enable-background:new 0 0 512 512;" xml:space="preserve">
<circle style="fill:#F4E3C3;" cx="256" cy="256" r="256"/>
<path style="fill:#FED8B2;" d="M266.916,511.752c123.79-5.196,224.844-98.285,242.374-218.49L332.409,116.381l-75.821,126.99
	l-159.461-7.704l77.495,77.495l-72.583,33.711L266.916,511.752z"/>
<path style="fill:#F9B54C;" d="M155.803,160.311c-6.951,0.024-12.567,5.679-12.543,12.629l0.083,23.64
	c-5.684-5.951-13.757-9.599-22.678-9.382c-15.615,0.378-28.615,12.902-29.525,28.494c-1.029,17.627,12.991,32.211,30.379,32.151
	c8.664-0.029,16.463-3.698,21.969-9.544l0.095,27.208c0.024,6.951,5.679,12.567,12.629,12.543l92.567-0.322
	c6.951-0.024,12.567-5.679,12.543-12.631l-0.322-92.567c-0.024-6.951-5.679-12.567-12.631-12.543L155.803,160.311z"/>
<path style="fill:#F4A200;" d="M260.999,172.532c-0.024-6.951-5.679-12.567-12.631-12.543l-52.417,0.183v117.741l52.827-0.184
	c6.951-0.024,12.567-5.679,12.543-12.629L260.999,172.532z"/>
<path style="fill:#6B5641;" d="M369.762,172.532c-0.024-6.951-5.679-12.567-12.631-12.543l-26.064,0.091
	c6.577-5.93,10.543-14.693,9.974-24.359c-0.896-15.184-13.26-27.551-28.444-28.441c-17.629-1.031-32.215,12.99-32.154,30.379
	c0.031,8.98,3.965,17.03,10.185,22.561l-26.064,0.091c-6.951,0.024-12.567,5.679-12.543,12.629l0.083,23.64
	c-5.684-5.951-13.757-9.599-22.678-9.382c-15.615,0.378-28.615,12.902-29.525,28.494c-1.029,17.627,12.991,32.211,30.379,32.151
	c8.664-0.029,16.463-3.698,21.969-9.544l0.095,27.208c0.024,6.951,5.679,12.567,12.629,12.543l92.567-0.322
	c6.951-0.024,12.567-5.679,12.543-12.631L369.762,172.532z"/>
<path style="fill:#57442F;" d="M369.762,172.532c-0.024-6.951-5.679-12.567-12.631-12.543l-26.064,0.09
	c6.577-5.93,10.543-14.693,9.974-24.359c-0.896-15.184-13.26-27.551-28.444-28.441c-0.386-0.022-0.762,0.002-1.145-0.007v170.617
	l46.089-0.16c6.951-0.024,12.567-5.679,12.543-12.629L369.762,172.532z"/>
<path style="fill:#6B5641;" d="M260.999,278.568c-0.024-6.951-5.679-12.567-12.629-12.543l-92.567,0.322
	c-6.951,0.024-12.567,5.679-12.543,12.631l0.083,23.64c-5.684-5.951-13.757-9.599-22.678-9.382
	c-15.615,0.378-28.615,12.902-29.525,28.494c-1.029,17.627,12.991,32.211,30.379,32.151c8.664-0.029,16.463-3.698,21.969-9.544
	l0.095,27.208c0.024,6.951,5.679,12.567,12.629,12.543l92.567-0.322c6.951-0.024,12.567-5.679,12.543-12.631L260.999,278.568z"/>
<path style="fill:#57442F;" d="M260.999,278.568c-0.024-6.951-5.679-12.567-12.629-12.543l-52.417,0.183v117.741l52.827-0.184
	c6.951-0.024,12.567-5.679,12.543-12.629L260.999,278.568z"/>
<path style="fill:#F9B54C;" d="M252.344,371.545c0.024,6.951,5.679,12.567,12.629,12.543l92.567-0.322
	c6.951-0.024,12.567-5.679,12.543-12.629l-0.084-24.376c-0.01-2.801-3.389-4.174-5.367-2.189c-5.465,5.484-13.015,8.888-21.37,8.918
	c-17.391,0.06-31.413-14.527-30.379-32.158c0.903-15.41,13.622-27.862,29.048-28.472c8.813-0.348,16.836,3.07,22.585,8.778
	c1.97,1.955,5.327,0.509,5.317-2.267l-0.072-20.801c-0.024-6.951-5.679-12.567-12.629-12.543l-26.064,0.091
	c6.577-5.93,10.543-14.693,9.974-24.359c-0.896-15.184-13.26-27.551-28.444-28.441c-17.629-1.031-32.215,12.99-32.154,30.379
	c0.031,8.98,3.965,17.03,10.185,22.561l-26.064,0.091c-6.951,0.024-12.567,5.679-12.543,12.631L252.344,371.545z"/>
<path style="fill:#F4A200;" d="M369.998,346.758c-0.01-2.801-3.389-4.174-5.367-2.189c-5.465,5.484-13.015,8.888-21.37,8.918
	c-17.391,0.06-31.413-14.527-30.379-32.158c0.903-15.41,13.622-27.862,29.048-28.472c8.813-0.348,16.836,3.07,22.585,8.778
	c1.97,1.957,5.327,0.509,5.317-2.267l-0.072-20.801c-0.024-6.951-5.679-12.567-12.629-12.543l-26.064,0.09
	c6.577-5.93,10.543-14.693,9.974-24.359c-0.896-15.184-13.26-27.551-28.444-28.441c-0.386-0.022-0.762,0.002-1.145-0.007v170.615
	l46.089-0.16c6.951-0.024,12.567-5.679,12.543-12.631L369.998,346.758z"/>
<g>
</g>
<g>
</g>
<g>
</g>
<g>
</g>
<g>
</g>
<g>
</g>
<g>
</g>
<g>
</g>
<g>
</g>
<g>
</g>
<g>
</g>
<g>
</g>
<g>
</g>
<g>
</g>
<g>
</g>
</svg>
