<?xml version="1.0" encoding="iso-8859-1"?>
<!-- Generator: Adobe Illustrator 19.0.0, SVG Export Plug-In . SVG Version: 6.00 Build 0)  -->
<svg version="1.1" id="Layer_1" xmlns="http://www.w3.org/2000/svg" xmlns:xlink="http://www.w3.org/1999/xlink" x="0px" y="0px"
	 viewBox="0 0 512.002 512.002" style="enable-background:new 0 0 512.002 512.002;" xml:space="preserve">
<circle style="fill:#E9EFF4;" cx="256.001" cy="256" r="256"/>
<path style="fill:#CFDBE6;" d="M505.824,312.072L380.465,186.713L356.556,246.6l-78.317-78.317l-42.294,95.349l-75.048-75.048
	l-29.579,78.174L62.992,338.17l173.063,173.063c6.582,0.507,13.234,0.769,19.946,0.769c24.03,0,47.283-3.318,69.336-9.509
	c0.24-0.245,0.484-0.495,0.722-0.736l0.417,0.417C415.945,476.606,485.373,403.584,505.824,312.072z"/>
<path style="fill:#E9EFF4;" d="M117.039,266.955l-26.017,8.783c-16.193,5.467-27.115,20.816-27.115,38.105v24.323h70.418v-71.213
	h-17.286V266.955z"/>
<path style="fill:#D0D1D3;" d="M205.594,313.846c0-17.289-10.923-32.639-27.115-38.105l-26.017-8.783h-18.139v71.213h71.27v-24.324
	H205.594z"/>
<polygon style="fill:#FED8B2;" points="152.689,266.955 134.75,284.896 116.809,266.955 116.809,249.016 152.689,249.016 "/>
<polygon style="fill:#EAC3A2;" points="134.322,249.016 134.322,284.47 134.748,284.896 152.689,266.955 152.689,249.016 "/>
<path style="fill:#F4E3C3;" d="M98.87,213.139c0-19.815,16.063-35.878,35.878-35.878s35.878,16.063,35.878,35.878
	c0,19.815-16.063,53.817-35.878,53.817S98.87,232.953,98.87,213.139z"/>
<path style="fill:#FED8B2;" d="M134.748,177.261c-0.143,0-0.283,0.019-0.426,0.021v89.652c0.143,0.003,0.283,0.022,0.426,0.022
	c19.815,0,35.878-34.002,35.878-53.817S154.565,177.261,134.748,177.261z"/>
<path style="fill:#F9B54C;" d="M170.628,213.139c0-19.815-16.063-35.878-35.878-35.878s-35.878,16.063-35.878,35.878
	c0,7.908,2.563,18.072,6.897,27.434c-1.015-5.389-0.745-10.9-0.212-15.058c22.775-1.786,44.751-12.441,44.751-12.441
	s2.781,5.111,13.214,9.661c0.74,4.244,1.469,11.145,0.2,17.858C168.061,231.224,170.628,221.051,170.628,213.139z"/>
<path style="fill:#F4A200;" d="M170.628,213.139c0-19.815-16.063-35.878-35.878-35.878c-0.143,0-0.283,0.019-0.426,0.021v42.067
	c9.53-3.15,15.984-6.275,15.984-6.275s2.781,5.111,13.214,9.661c0.74,4.244,1.469,11.147,0.2,17.858
	C168.061,231.224,170.628,221.051,170.628,213.139z"/>
<polygon style="fill:#38C6D9;" points="127.206,337.542 132.235,290.866 137.263,290.866 142.292,337.542 "/>
<polygon style="fill:#02B2B2;" points="137.263,290.866 134.322,290.866 134.322,337.542 142.292,337.542 "/>
<path style="fill:#57442F;" d="M206.506,313.846c0-17.289-11.062-32.639-27.465-38.105l-18.146-6.049l-26.146,67.851l-0.426-1.103
	v1.731h72.183V313.846z"/>
<path style="fill:#734B46;" d="M108.603,269.691l-18.146,6.049c-16.401,5.467-27.465,20.816-27.465,38.105v24.323h71.33v-1.731
	L108.603,269.691z"/>
<polygon style="fill:#443322;" points="160.895,269.691 165.866,290.866 156.437,295.581 165.866,306.426 134.748,337.542 "/>
<polygon style="fill:#57442F;" points="108.602,269.691 103.632,290.866 113.062,295.581 103.632,306.426 134.748,337.542 "/>
<polygon style="fill:#71E2EF;" points="144.65,284.974 138.05,300.532 131.449,300.532 124.848,284.974 "/>
<polygon style="fill:#38C6D9;" points="144.65,284.974 134.322,284.974 134.322,300.532 138.05,300.532 "/>
<polygon style="fill:#E9EFF4;" points="150.306,290.866 160.895,269.691 152.689,266.955 134.75,284.896 "/>
<polygon style="fill:#FFFFFF;" points="119.19,290.866 108.603,269.691 116.809,266.955 134.748,284.896 "/>
<path style="fill:#E9EFF4;" d="M338.491,266.955l-26.017,8.783c-16.193,5.467-27.115,20.816-27.115,38.105v24.323h70.487v-71.213
	h-17.355V266.955z"/>
<path style="fill:#D0D1D3;" d="M427.047,313.846c0-17.289-10.923-32.639-27.115-38.105l-26.017-8.783h-18.068v71.213h71.201V313.846
	z"/>
<polygon style="fill:#FED8B2;" points="374.142,266.955 356.203,284.896 338.264,266.955 338.264,249.016 374.142,249.016 "/>
<polygon style="fill:#EAC3A2;" points="355.844,249.016 355.844,284.538 356.203,284.896 374.142,266.955 374.142,249.016 "/>
<path style="fill:#F4E3C3;" d="M320.325,213.139c0-19.815,16.063-35.878,35.878-35.878s35.878,16.063,35.878,35.878
	c0,19.815-16.063,53.817-35.878,53.817S320.325,232.953,320.325,213.139z"/>
<path style="fill:#FED8B2;" d="M356.203,177.261c-0.121,0-0.238,0.017-0.357,0.017v89.659c0.119,0.002,0.238,0.019,0.357,0.019
	c19.815,0,35.878-34.002,35.878-53.817S376.017,177.261,356.203,177.261z"/>
<path style="fill:#D83E20;" d="M392.081,213.139c0-19.815-16.063-35.878-35.878-35.878s-35.878,16.063-35.878,35.878
	c0,7.908,2.563,18.072,6.897,27.434c-1.015-5.389-0.745-10.9-0.212-15.058c22.775-1.786,44.751-12.441,44.751-12.441
	s2.781,5.111,13.214,9.661c0.74,4.244,1.469,11.145,0.2,17.858C389.514,231.224,392.081,221.051,392.081,213.139z"/>
<path style="fill:#C1321F;" d="M392.081,213.139c0-19.815-16.063-35.878-35.878-35.878c-0.121,0-0.238,0.017-0.357,0.017v42.048
	c9.492-3.143,15.915-6.253,15.915-6.253s2.781,5.111,13.214,9.661c0.74,4.244,1.469,11.147,0.2,17.858
	C389.514,231.224,392.081,221.051,392.081,213.139z"/>
<polygon style="fill:#38C6D9;" points="348.659,337.542 353.688,290.866 358.716,290.866 363.747,337.542 "/>
<polygon style="fill:#02B2B2;" points="358.716,290.866 355.844,290.866 355.844,337.542 363.747,337.542 "/>
<path style="fill:#324A5E;" d="M330.056,269.691l-18.146,6.049c-16.401,5.466-27.465,20.816-27.465,38.105v24.323h71.399v-1.553
	L330.056,269.691z"/>
<path style="fill:#2B3B4E;" d="M427.959,313.846c0-17.289-11.064-32.639-27.465-38.105l-18.146-6.049l-26.146,67.851l-0.357-0.927
	v1.553h72.114V313.846z"/>
<polygon style="fill:#22303F;" points="382.349,269.691 387.319,290.866 377.89,295.581 387.319,306.426 356.203,337.542 "/>
<polygon style="fill:#425E70;" points="330.056,269.691 325.085,290.866 334.514,295.581 325.085,306.426 356.203,337.542 "/>
<polygon style="fill:#71E2EF;" points="366.103,284.974 359.502,300.532 352.902,300.532 346.301,284.974 "/>
<polygon style="fill:#38C6D9;" points="366.103,284.974 355.844,284.974 355.844,300.532 359.502,300.532 "/>
<polygon style="fill:#E9EFF4;" points="371.761,290.866 382.349,269.691 374.142,266.955 356.203,284.896 "/>
<polygon style="fill:#FFFFFF;" points="340.645,290.866 330.056,269.691 338.264,266.955 356.203,284.896 "/>
<path style="fill:#E9EFF4;" d="M228.598,257.291l-29.301,9.976c-18.237,6.21-30.539,23.642-30.539,43.277v27.624h79.344v-80.877
	H228.598z"/>
<path style="fill:#D0D1D3;" d="M328.332,310.544c0-19.635-12.302-37.067-30.539-43.277l-29.301-9.976h-20.39v80.877h80.231
	L328.332,310.544L328.332,310.544z"/>
<polygon style="fill:#FED8B2;" points="268.918,257.291 248.545,277.666 228.17,257.291 228.17,236.918 268.918,236.918 "/>
<polygon style="fill:#EAC3A2;" points="248.1,236.918 248.1,277.221 248.545,277.666 268.918,257.291 268.918,236.918 "/>
<path style="fill:#F4E3C3;" d="M207.797,196.172c0-22.504,18.242-40.748,40.748-40.748s40.748,18.242,40.748,40.748
	s-18.242,61.121-40.748,61.121S207.797,218.676,207.797,196.172z"/>
<path style="fill:#FED8B2;" d="M248.545,155.424c-0.148,0-0.295,0.01-0.443,0.012v101.833c0.148,0.003,0.295,0.024,0.443,0.024
	c22.504,0,40.748-38.617,40.748-61.121S271.049,155.424,248.545,155.424z"/>
<path style="fill:#604B36;" d="M281.222,207.069c0.84,4.82,1.669,12.659,0.228,20.282c4.927-10.64,7.842-22.192,7.842-31.179
	c0-22.504-18.242-40.748-40.748-40.748s-40.748,18.244-40.748,40.748c0,8.98,2.912,20.523,7.833,31.158
	c-1.153-6.122-0.845-12.379-0.24-17.101C215.391,210.227,239.015,178.262,281.222,207.069z"/>
<path style="fill:#57442F;" d="M289.291,196.172c0-22.504-18.242-40.748-40.748-40.748c-0.148,0-0.295,0.01-0.443,0.012v39.626
	c9.242,0.145,20.32,3.27,33.12,12.007c0.84,4.82,1.669,12.659,0.228,20.282C286.376,216.71,289.291,205.157,289.291,196.172z"/>
<polygon style="fill:#3E5A6D;" points="239.977,337.458 245.688,284.448 251.4,284.448 257.111,337.458 "/>
<polygon style="fill:#324A5E;" points="251.4,284.448 248.1,284.448 248.1,337.458 257.111,337.458 "/>
<path style="fill:#00A49A;" d="M218.851,260.399l-20.608,6.87c-18.629,6.21-31.192,23.642-31.192,43.277v27.624h81.051v-1.862
	L218.851,260.399z"/>
<path style="fill:#2C9984;" d="M330.039,310.546c0-19.635-12.564-37.067-31.192-43.277l-20.609-6.87l-29.694,77.059l-0.443-1.15
	v1.862h81.937v-27.624H330.039z"/>
<polygon style="fill:#1E7C6A;" points="278.239,260.399 283.883,284.448 273.174,289.802 283.883,302.118 248.543,337.458 "/>
<polygon style="fill:#2C9984;" points="218.849,260.399 213.203,284.448 223.914,289.802 213.203,302.118 248.543,337.458 "/>
<polygon style="fill:#324A5E;" points="259.788,277.754 252.293,295.424 244.795,295.424 237.3,277.754 "/>
<polygon style="fill:#2B3B4E;" points="259.788,277.754 248.1,277.754 248.1,295.424 252.293,295.424 "/>
<polygon style="fill:#E9EFF4;" points="266.213,284.448 278.239,260.399 268.918,257.291 248.545,277.666 "/>
<polygon style="fill:#FFFFFF;" points="230.875,284.448 218.851,260.399 228.17,257.291 248.543,277.666 "/>
<g>
</g>
<g>
</g>
<g>
</g>
<g>
</g>
<g>
</g>
<g>
</g>
<g>
</g>
<g>
</g>
<g>
</g>
<g>
</g>
<g>
</g>
<g>
</g>
<g>
</g>
<g>
</g>
<g>
</g>
</svg>
