<svg width="20" height="20" viewBox="0 0 20 20" fill="none" xmlns="http://www.w3.org/2000/svg">
<path d="M20 0H0V20H20V0Z" fill="#757575"/>
<path d="M4.77293 6.68818C4.78962 6.52325 4.72672 6.36023 4.60357 6.24922L3.34905 4.73796V4.51221H7.24433L10.2552 11.1154L12.9022 4.51221H16.6156V4.73796L15.543 5.76637C15.4505 5.83686 15.4046 5.95271 15.4238 6.06737V13.6237C15.4046 13.7384 15.4505 13.8542 15.543 13.9247L16.5905 14.9531V15.1789H11.3215V14.9531L12.4067 13.8996C12.5133 13.793 12.5133 13.7617 12.5133 13.5986V7.49085L9.49619 15.1538H9.08847L5.57582 7.49085V12.6266C5.54653 12.8426 5.61824 13.06 5.77027 13.2161L7.1816 14.928V15.1538H3.17969V14.928L4.59102 13.2161C4.74194 13.0597 4.80947 12.8409 4.77293 12.6266V6.68818Z" fill="white"/>
</svg>
