<svg xmlns="http://www.w3.org/2000/svg" viewBox="0 0 24 24"><defs><style>.a{fill:#757575;}</style></defs><g transform="translate(-1015 -1009)"><path class="a" d="M-36.44-4652.5h-24v-24h24Zm-7.28-14.595a3.882,3.882,0,0,0-1.543.3,3.7,3.7,0,0,0-1.2.825,3.61,3.61,0,0,0-.775,1.24,4.359,4.359,0,0,0-.273,1.547,4.531,4.531,0,0,0,.266,1.577,3.662,3.662,0,0,0,.751,1.232,3.342,3.342,0,0,0,1.195.8,4.3,4.3,0,0,0,1.578.28,3.845,3.845,0,0,0,2.142-.576,3.414,3.414,0,0,0,1.32-1.909h-1.789a1.309,1.309,0,0,1-.543.655,1.816,1.816,0,0,1-1.061.311,1.812,1.812,0,0,1-1.314-.447,1.586,1.586,0,0,1-.366-.61,2.515,2.515,0,0,1-.137-.826h5.339a5.28,5.28,0,0,0-.141-1.647,4.037,4.037,0,0,0-.65-1.4,3.292,3.292,0,0,0-1.154-.98,3.519,3.519,0,0,0-1.644-.365Zm-13.009-2.61v10.218h4.953a5.2,5.2,0,0,0,1.335-.171,3.551,3.551,0,0,0,1.163-.53,2.614,2.614,0,0,0,.808-.925,2.848,2.848,0,0,0,.3-1.339,2.856,2.856,0,0,0-.461-1.64,2.451,2.451,0,0,0-1.4-.952,2.551,2.551,0,0,0,1.043-.843,2.247,2.247,0,0,0,.35-1.287,2.751,2.751,0,0,0-.234-1.2,1.978,1.978,0,0,0-.667-.779,2.906,2.906,0,0,0-1.032-.422,6.266,6.266,0,0,0-1.333-.13Zm10.844.686v1.009h4.142v-1.009Zm-6.194,7.792h-2.4v-2.814h2.446a1.9,1.9,0,0,1,1.173.335,1.038,1.038,0,0,1,.332.453,1.852,1.852,0,0,1,.111.676,1.417,1.417,0,0,1-.134.662,1.085,1.085,0,0,1-.366.408,1.483,1.483,0,0,1-.53.217,2.856,2.856,0,0,1-.631.064Zm9.916-2.75H-45.47a2.356,2.356,0,0,1,.092-.488,1.455,1.455,0,0,1,.273-.521,1.645,1.645,0,0,1,.515-.408,1.763,1.763,0,0,1,.809-.166,1.52,1.52,0,0,1,1.15.413,1.979,1.979,0,0,1,.468,1.17Zm-10.04-1.6H-54.48v-2.387h2.106a2.985,2.985,0,0,1,.578.051,1.384,1.384,0,0,1,.5.179.932.932,0,0,1,.347.355,1.217,1.217,0,0,1,.126.587,1.465,1.465,0,0,1-.1.555.862.862,0,0,1-.289.375,1.416,1.416,0,0,1-.444.215,1.969,1.969,0,0,1-.547.072Z" transform="translate(1075.44 5685.495)"/></g></svg>