<svg xmlns="http://www.w3.org/2000/svg" viewBox="0 0 36 36">
  <defs>
    <style>
      .cls-1 {
        fill: #757575;
      }
    </style>
  </defs>
  <g id="facebook" transform="translate(0 0)">
    <path id="Path_27" data-name="Path 27" class="cls-1" d="M19.229,36H1.986A1.989,1.989,0,0,1,0,34.013V1.987A1.989,1.989,0,0,1,1.986,0H34.013A1.989,1.989,0,0,1,36,1.987V34.013A1.989,1.989,0,0,1,34.013,36H24.839V22.059h4.679l.7-5.433h-5.38V13.156c0-1.587.458-2.645,2.693-2.645h2.877V5.651a38.633,38.633,0,0,0-4.192-.214c-4.31,0-6.988,2.752-6.988,7.181v4.008H14.537v5.433h4.692V36Z" transform="translate(0 0)"/>
  </g>
</svg>
