<svg id="github-icon" xmlns="http://www.w3.org/2000/svg" viewBox="0 0 24 24">
  <defs>
    <style>
      .cls-1 {
        fill: #757575;
      }
    </style>
  </defs>
  <path id="Path_26" data-name="Path 26" class="cls-1" d="M12,0A12.155,12.155,0,0,0,0,12.3,12.283,12.283,0,0,0,8.206,23.979c.6.114.82-.267.82-.592,0-.293-.011-1.263-.016-2.291-3.338.744-4.043-1.452-4.043-1.452a3.237,3.237,0,0,0-1.332-1.8c-1.089-.764.082-.748.082-.748a2.53,2.53,0,0,1,1.84,1.268,2.519,2.519,0,0,0,3.492,1.023,2.646,2.646,0,0,1,.762-1.645c-2.665-.311-5.467-1.366-5.467-6.081a4.829,4.829,0,0,1,1.236-3.3A4.525,4.525,0,0,1,5.7,5.1S6.7,4.772,9,6.364a11.112,11.112,0,0,1,6.01,0C17.3,4.772,18.3,5.1,18.3,5.1a4.519,4.519,0,0,1,.118,3.256,4.82,4.82,0,0,1,1.235,3.3c0,4.726-2.807,5.766-5.479,6.071a2.981,2.981,0,0,1,.814,2.278c0,1.646-.014,2.971-.014,3.376,0,.327.216.711.824.59A12.282,12.282,0,0,0,24,12.3,12.155,12.155,0,0,0,12,0Z" transform="translate(0)"/>
</svg>
