<svg xmlns="http://www.w3.org/2000/svg" width="48" height="48" viewBox="0 0 48 48"><defs><style>.a,.b{fill:none;}.a{stroke:#fff;stroke-linecap:round;stroke-linejoin:round;stroke-width:4px;}</style></defs><g transform="translate(-310 -1630)"><path class="a" d="M15.316,35.266C5.8,38.12,5.8,30.51,2,29.559M28.633,40.973V33.611a6.411,6.411,0,0,0-1.788-4.965C32.818,27.98,39.1,25.716,39.1,15.33A10.348,10.348,0,0,0,36.243,8.2a9.645,9.645,0,0,0-.173-7.173S33.826.358,28.633,3.84a25.453,25.453,0,0,0-13.316,0C10.123.358,7.878,1.024,7.878,1.024A9.645,9.645,0,0,0,7.707,8.2a10.349,10.349,0,0,0-2.854,7.191C4.854,25.7,11.131,27.961,17.1,28.7a6.411,6.411,0,0,0-1.788,4.908v7.362" transform="translate(313 1633.027)"/><rect class="b" width="48" height="48" transform="translate(310 1630)"/></g></svg>