<?xml version="1.0" encoding="UTF-8"?>
<svg xmlns="http://www.w3.org/2000/svg" xmlns:xlink="http://www.w3.org/1999/xlink" viewBox="0 0 24 24" version="1.1">
<g id="surface5038158">
<path style=" stroke:none;fill-rule:nonzero;fill:#757575;fill-opacity:1;" d="M 18.300781 23.101562 C 20.949219 23.101562 23.101562 20.949219 23.101562 18.300781 L 23.101562 5.699219 C 23.101562 3.050781 20.949219 0.898438 18.300781 0.898438 L 5.699219 0.898438 C 3.050781 0.898438 0.898438 3.050781 0.898438 5.699219 L 0.898438 18.300781 C 0.898438 20.949219 3.050781 23.101562 5.699219 23.101562 Z M 18.300781 23.101562 "/>
<path style=" stroke:none;fill-rule:nonzero;fill:#757575;fill-opacity:1;" d="M 2.039062 2.597656 C 1.332031 3.4375 0.898438 4.515625 0.898438 5.699219 L 0.898438 18.300781 C 0.898438 20.949219 3.050781 23.101562 5.699219 23.101562 L 18.300781 23.101562 C 20.949219 23.101562 23.101562 20.949219 23.101562 18.300781 L 23.101562 5.699219 C 23.101562 5.398438 23.070312 5.105469 23.015625 4.820312 C 19.28125 2.53125 14.898438 1.199219 10.199219 1.199219 C 7.335938 1.199219 4.59375 1.699219 2.039062 2.597656 Z M 2.039062 2.597656 "/>
<path style=" stroke:none;fill-rule:nonzero;fill:#757575;fill-opacity:1;" d="M 0.902344 5.640625 C 0.902344 5.664062 0.898438 5.679688 0.898438 5.699219 L 0.898438 18.300781 C 0.898438 20.949219 3.050781 23.101562 5.699219 23.101562 L 18.300781 23.101562 C 20.949219 23.101562 23.101562 20.949219 23.101562 18.300781 L 23.101562 7.738281 C 19.464844 5.136719 15.011719 3.601562 10.199219 3.601562 C 6.878906 3.601562 3.730469 4.335938 0.902344 5.640625 Z M 0.902344 5.640625 "/>
<path style=" stroke:none;fill-rule:nonzero;fill:#757575;fill-opacity:1;" d="M 0.898438 8.328125 L 0.898438 18.300781 C 0.898438 20.949219 3.050781 23.101562 5.699219 23.101562 L 18.300781 23.101562 C 20.949219 23.101562 23.101562 20.949219 23.101562 18.300781 L 23.101562 10.789062 C 19.632812 7.808594 15.128906 6 10.199219 6 C 6.835938 6 3.675781 6.847656 0.898438 8.328125 Z M 0.898438 8.328125 "/>
<path style=" stroke:none;fill-rule:nonzero;fill:#757575;fill-opacity:1;" d="M 10.199219 8.398438 C 6.777344 8.398438 3.589844 9.398438 0.898438 11.105469 L 0.898438 18.300781 C 0.898438 20.949219 3.050781 23.101562 5.699219 23.101562 L 18.300781 23.101562 C 20.949219 23.101562 23.101562 20.949219 23.101562 18.300781 L 23.101562 14.140625 C 19.917969 10.617188 15.320312 8.398438 10.199219 8.398438 Z M 10.199219 8.398438 "/>
<path style=" stroke:none;fill-rule:nonzero;fill:#757575;fill-opacity:1;" d="M 10.199219 10.800781 C 6.683594 10.800781 3.457031 12.019531 0.898438 14.046875 L 0.898438 18.300781 C 0.898438 20.949219 3.050781 23.101562 5.699219 23.101562 L 18.300781 23.101562 C 20.949219 23.101562 23.101562 20.949219 23.101562 18.300781 L 23.101562 18.15625 C 20.484375 13.753906 15.691406 10.800781 10.199219 10.800781 Z M 10.199219 10.800781 "/>
<path style=" stroke:none;fill-rule:nonzero;fill:#757575;fill-opacity:1;" d="M 10.199219 13.199219 C 6.511719 13.199219 3.203125 14.789062 0.898438 17.316406 L 0.898438 18.300781 C 0.898438 20.949219 3.050781 23.101562 5.699219 23.101562 L 18.300781 23.101562 C 19.777344 23.101562 21.101562 22.429688 21.980469 21.378906 C 20.1875 16.605469 15.597656 13.199219 10.199219 13.199219 Z M 10.199219 13.199219 "/>
<path style=" stroke:none;fill-rule:nonzero;fill:#757575;fill-opacity:1;" d="M 18.300781 23.101562 C 18.875 23.101562 19.421875 22.992188 19.933594 22.808594 C 18.652344 18.640625 14.789062 15.601562 10.199219 15.601562 C 6.488281 15.601562 3.246094 17.585938 1.460938 20.546875 C 2.265625 22.066406 3.863281 23.101562 5.699219 23.101562 Z M 18.300781 23.101562 "/>
<path style=" stroke:none;fill-rule:nonzero;fill:#757575;fill-opacity:1;" d="M 10.199219 18 C 7.117188 18 4.457031 19.789062 3.191406 22.386719 C 3.921875 22.835938 4.777344 23.101562 5.699219 23.101562 L 17.511719 23.101562 C 16.410156 20.125 13.558594 18 10.199219 18 Z M 10.199219 18 "/>
<path style=" stroke:none;fill-rule:nonzero;fill:#757575;fill-opacity:1;" d="M 10.199219 20.398438 C 8.207031 20.398438 6.484375 21.488281 5.546875 23.09375 C 5.597656 23.09375 5.648438 23.101562 5.699219 23.101562 L 14.855469 23.101562 C 13.921875 21.492188 12.195312 20.398438 10.199219 20.398438 Z M 10.199219 20.398438 "/>
<path style=" stroke:none;fill-rule:nonzero;fill:#757575;fill-opacity:1;" d="M 18.601562 1.199219 C 20.914062 1.199219 22.800781 3.085938 22.800781 5.398438 L 22.800781 18.601562 C 22.800781 20.914062 20.914062 22.800781 18.601562 22.800781 L 5.398438 22.800781 C 3.085938 22.800781 1.199219 20.914062 1.199219 18.601562 L 1.199219 5.398438 C 1.199219 3.085938 3.085938 1.199219 5.398438 1.199219 L 18.601562 1.199219 M 18.601562 0.601562 L 5.398438 0.601562 C 2.75 0.601562 0.601562 2.75 0.601562 5.398438 L 0.601562 18.601562 C 0.601562 21.25 2.75 23.398438 5.398438 23.398438 L 18.601562 23.398438 C 21.25 23.398438 23.398438 21.25 23.398438 18.601562 L 23.398438 5.398438 C 23.398438 2.75 21.25 0.601562 18.601562 0.601562 Z M 18.601562 0.601562 "/>
<path style=" stroke:none;fill-rule:nonzero;fill:rgb(100%,100%,100%);fill-opacity:1;" d="M 16.5 6.601562 C 16.003906 6.601562 15.601562 7.003906 15.601562 7.5 C 15.601562 7.996094 16.003906 8.398438 16.5 8.398438 C 16.996094 8.398438 17.398438 7.996094 17.398438 7.5 C 17.398438 7.003906 16.996094 6.601562 16.5 6.601562 Z M 16.5 6.601562 "/>
<path style="fill:none;stroke-width:8.6;stroke-linecap:butt;stroke-linejoin:miter;stroke:rgb(100%,100%,100%);stroke-opacity:1;stroke-miterlimit:10;" d="M 86 60.188802 C 71.750651 60.188802 60.188802 71.750651 60.188802 86 C 60.188802 100.249349 71.750651 111.811198 86 111.811198 C 100.249349 111.811198 111.811198 100.249349 111.811198 86 C 111.811198 71.750651 100.249349 60.188802 86 60.188802 Z M 86 60.188802 " transform="matrix(0.139535,0,0,0.139535,0,0)"/>
<path style="fill:none;stroke-width:8.6;stroke-linecap:butt;stroke-linejoin:miter;stroke:rgb(100%,100%,100%);stroke-opacity:1;stroke-miterlimit:10;" d="M 141.905599 62.344401 C 141.905599 44.539714 127.460286 30.094401 109.655599 30.094401 C 100.305339 30.094401 71.694661 30.094401 62.344401 30.094401 C 44.539714 30.094401 30.094401 44.539714 30.094401 62.344401 C 30.094401 71.694661 30.094401 100.305339 30.094401 109.655599 C 30.094401 127.460286 44.539714 141.905599 62.344401 141.905599 C 71.694661 141.905599 100.305339 141.905599 109.655599 141.905599 C 127.460286 141.905599 141.905599 127.460286 141.905599 109.655599 C 141.905599 100.305339 141.905599 71.694661 141.905599 62.344401 Z M 141.905599 62.344401 " transform="matrix(0.139535,0,0,0.139535,0,0)"/>
</g>
</svg>
