<svg xmlns="http://www.w3.org/2000/svg" viewBox="0 0 24 24">
  <defs>
    <style>
      .cls-1 {
        fill: #757575;
      }
    </style>
  </defs>
  <g id="linkedin" transform="translate(-381.779 0)">
    <path id="Path_37" data-name="Path 37" class="cls-1" d="M22.223,24H1.771A1.754,1.754,0,0,1,0,22.268V1.73A1.753,1.753,0,0,1,1.771,0H22.223A1.756,1.756,0,0,1,24,1.73V22.268A1.757,1.757,0,0,1,22.223,24Zm-7.18-12.156a1.554,1.554,0,0,1,1.609,1.02,5.753,5.753,0,0,1,.24,2.017v5.57h3.557V14.169a7.2,7.2,0,0,0-.783-3.885,3.763,3.763,0,0,0-3.487-1.572,3.758,3.758,0,0,0-3.368,1.85h-.047V9H9.351V20.451h3.557V14.785a4.17,4.17,0,0,1,.373-2.031A1.825,1.825,0,0,1,15.044,11.844ZM3.558,9V20.451h3.56V9ZM5.339,3.3A2.064,2.064,0,1,0,7.4,5.368,2.066,2.066,0,0,0,5.339,3.3Z" transform="translate(381.779 0)"/>
  </g>
</svg>
