<?xml version="1.0" encoding="utf-8"?>
<svg id="master-artboard" viewBox="0 0 982.3621215820312 980" version="1.1" xmlns="http://www.w3.org/2000/svg" x="0px" y="0px" style="enable-background:new 0 0 1400 980;" width="982.3621215820312px" height="980px"><rect id="ee-background" x="0" y="0" width="982.3621215820312" height="980" style="fill: white; fill-opacity: 0; pointer-events: none;"/><g transform="matrix(40.83333206176758, 0, 0, 40.83333206176758, 1.18109130859375, 0)"><path d="M19 24h-14c-2.761 0-5-2.239-5-5v-14c0-2.761 2.239-5 5-5h14c2.762 0 5 2.239 5 5v14c0 2.761-2.237 4.999-5 5zm.97-5.649v-.269l-1.247-1.224c-.11-.084-.165-.222-.142-.359v-8.998c-.023-.137.032-.275.142-.359l1.277-1.224v-.269h-4.422l-3.152 7.863-3.586-7.863h-4.638v.269l1.494 1.799c.146.133.221.327.201.523v7.072c.044.255-.037.516-.216.702l-1.681 2.038v.269h4.766v-.269l-1.681-2.038c-.181-.186-.266-.445-.232-.702v-6.116l4.183 9.125h.486l3.593-9.125v7.273c0 .194 0 .232-.127.359l-1.292 1.254v.269h6.274z" style="fill-opacity: 1; fill: rgb(95, 95, 95);"/></g></svg>