<svg xmlns="http://www.w3.org/2000/svg" viewBox="0 0 135.416 60">
  <defs>
    <style>
      .cls-1 {
        fill: #757575;
      }
    </style>
  </defs>
  <path id="ncs-logo" class="cls-1" d="M49.5,34.383h0c0,1.285-1.134,2.04-3.023,2.04a9.908,9.908,0,0,1-6.348-2.569l-.076.076v-.076c-1.662,1.511-3.174,2.494-5.592,2.494-3.627,0-6.121-3.023-6.121-6.65v-.076c0-3.627,2.569-6.574,6.121-6.574a7.041,7.041,0,0,1,3.854,1.209,3.992,3.992,0,0,0-.076.982v.076c0,4.232,2.72,5.365,7.028,6.5C48.816,32.645,49.5,33.249,49.5,34.383ZM60,0V60H0V0ZM54.106,34.005c0-3.7-2.418-5.214-6.725-6.348-3.627-.907-4.534-1.36-4.534-2.8v-.076c0-1.058.907-1.814,2.72-1.814a9.972,9.972,0,0,1,5.516,2.116L53.5,21.612a12.269,12.269,0,0,0-7.859-2.72A7.8,7.8,0,0,0,40.655,20.4a11.846,11.846,0,0,0-6.2-1.587,10.949,10.949,0,0,0-7.33,2.645V19.194h-4.61v13L12.7,19.118H8.388V40.277H13V26.826L23.275,40.277H27.2V38.086a10.681,10.681,0,0,0,7.1,2.569,11,11,0,0,0,5.97-1.511A13.258,13.258,0,0,0,46.4,40.579c4.534,0,7.783-2.343,7.708-6.574ZM70.655,1.058H68.539V58.942h2.116ZM79.647,3.7H78.06v11.94h1.587V7.859L81.385,13.3v2.343h1.587V3.7H81.385V9.446Zm7.632,11.94V3.7H85.693v11.94Zm6.423-6.2a1.246,1.246,0,0,0,1.133-1.285V5.894c0-1.436-.68-2.191-2.116-2.191H90v11.94h3.249a1.6,1.6,0,0,0,1.814-1.36V10.806c0-.68-.453-1.134-1.285-1.36H93.7ZM91.587,5.139h.982c.453,0,.68.3.68.831V7.859c0,.6-.3.831-.907.831h-.756Zm0,5.063h.907c.6,0,.982.3.982.831v2.645c0,.378-.227.529-.6.529H91.662V10.2Zm9.748-.756a1.246,1.246,0,0,0,1.134-1.285V5.894c0-1.436-.68-2.191-2.116-2.191h-2.72v11.94h3.249a1.6,1.6,0,0,0,1.814-1.36V10.806c0-.68-.453-1.134-1.285-1.36ZM99.219,5.214h.982c.453,0,.68.3.68.831V7.935c0,.6-.3.831-.907.831h-.756Zm0,4.987h.907c.6,0,.982.3.982.831v2.645c0,.378-.227.529-.6.529H99.295V10.2Zm9.824,4.005h-2.191V3.7h-1.587v11.94h3.778Zm6.121,1.436V14.207h-2.343V10.2h2.04V8.766h-2.116V5.139h2.343V3.7h-3.929v11.94ZM81.234,32.8v.68c0,.453-.227.68-.6.68h-.378c-.453,0-.6-.227-.6-.68V25.844c0-.453.227-.68.6-.68h.3a.53.53,0,0,1,.68.529v1.36h1.587v-1.36c0-1.36-.6-2.04-1.889-2.04H79.874c-1.285,0-1.889.68-1.889,2.04v7.859c0,1.36.6,2.04,1.889,2.04h.982c1.285,0,1.889-.68,1.889-2.04V32.8Zm7.406,2.8a1.781,1.781,0,0,0,1.965-2.04V25.693c0-1.36-.6-2.04-1.889-2.04H87.2c-1.285,0-1.889.68-1.889,2.04v7.859c0,1.36.6,2.04,1.965,2.04Zm-1.814-2.116V25.844a.6.6,0,0,1,.529-.68h.907a.53.53,0,0,1,.68.529v7.783c0,.453-.227.68-.6.68h-.831a.623.623,0,0,1-.756-.529c.076,0,.076-.076.076-.151Zm8.161-9.824H93.249v11.94h1.587l-.151-7.783,1.209,5.668H97.1l1.134-5.668-.151,7.783h1.587V23.652H97.935L96.423,30.68Zm7.481,11.94h1.587V31.285h1.36c1.285,0,1.889-.68,1.889-2.04V25.693c0-1.36-.6-2.04-1.965-2.04h-2.947Zm1.587-10.5h.907a.53.53,0,0,1,.68.529v3.476c0,.453-.227.68-.6.68h-.982V25.088Zm9.295-1.436v9.673c0,.529-.227.756-.68.756h-.68c-.453,0-.68-.227-.68-.756V23.652h-1.587v9.673c0,1.511.6,2.267,1.889,2.267h1.36c1.285,0,1.965-.756,1.965-2.267V23.652Zm8.388,1.436V23.652h-4.61v1.436h1.511v10.5h1.587v-10.5Zm6.121,10.5V34.156h-2.343V30.227h2.116V28.715h-2.116V25.088h2.343V23.652h-3.929v11.94Zm2.418,0h1.587V30.756h.982l1.058,4.836h1.511L134.282,30.6c.68-.3.982-.907.982-1.965V25.693q0-2.04-1.814-2.04h-3.1Zm1.587-10.5h1.058c.453,0,.68.3.68.831v2.569c0,.6-.227.831-.68.831h-1.058ZM82.67,46.851V45.642c0-1.36-.6-2.04-1.889-2.04H79.8c-1.285,0-1.889.68-1.889,2.04V48.06a2.571,2.571,0,0,0,.076.756c.076.151.151.378.3.453a6.645,6.645,0,0,0,.756.453l1.511.831c.151.076.3.227.453.3a1.074,1.074,0,0,1,.151.453v2.04c0,.453-.227.68-.6.68h-.3a.53.53,0,0,1-.68-.529V52.67H77.834v.6c0,1.436.6,2.191,1.889,2.191h.982a1.781,1.781,0,0,0,1.965-2.04V50.932a1.5,1.5,0,0,0-.151-.831,1.649,1.649,0,0,0-.3-.378l-.68-.453-1.511-.831c-.151-.076-.3-.227-.453-.3a1.074,1.074,0,0,1-.151-.453V45.718c0-.453.227-.756.68-.756h.227a.565.565,0,0,1,.68.529v1.36Zm5.894,8.766a1.781,1.781,0,0,0,1.965-2.04V45.642c0-1.36-.6-2.04-1.889-2.04H87.128c-1.285,0-1.889.68-1.889,2.04V53.5a1.781,1.781,0,0,0,1.965,2.04Zm-1.814-2.191V45.793a.6.6,0,0,1,.529-.68h.907a.53.53,0,0,1,.68.529v7.783c0,.453-.227.68-.6.68h-.831a.53.53,0,0,1-.68-.529c0-.076,0-.076,0-.151Zm9.6-.6v.68c0,.453-.227.68-.6.68h-.378c-.453,0-.6-.227-.6-.68V45.793c0-.453.227-.68.6-.68h.3a.53.53,0,0,1,.68.529V47h1.587v-1.36c0-1.36-.6-2.04-1.889-2.04H94.987c-1.285,0-1.889.68-1.889,2.04V53.5c0,1.36.6,2.04,1.889,2.04h1.058c1.285,0,1.889-.68,1.889-2.04v-.756Zm5.668,2.8V43.6h-1.587v11.94Zm6.725,0V54.181H106.4V50.176h2.116V48.741H106.4V45.113h2.343V43.678h-3.929v11.94Zm6.5-10.5V43.6h-4.685v1.436h1.511v10.5h1.587v-10.5Zm5.139,6.045,1.965-7.557h-1.587L119.7,48.816h-.076L118.413,43.6h-1.587l1.965,7.557v4.383h1.587Z"/>
</svg>
