<?xml version="1.0" encoding="UTF-8"?>
<svg xmlns="http://www.w3.org/2000/svg" xmlns:xlink="http://www.w3.org/1999/xlink" viewBox="0 0 18 18" width="18px" height="18px">
<g id="surface7583003">
<path style=" stroke:none;fill-rule:nonzero;fill:rgb(45.882353%,45.882353%,45.882353%);fill-opacity:1;" d="M 15.824219 0.226562 L 2.175781 0.226562 C 1.097656 0.226562 0.226562 1.097656 0.226562 2.175781 L 0.226562 15.824219 C 0.226562 16.902344 1.097656 17.773438 2.175781 17.773438 L 15.824219 17.773438 C 16.902344 17.773438 17.773438 16.902344 17.773438 15.824219 L 17.773438 2.175781 C 17.773438 1.097656 16.902344 0.226562 15.824219 0.226562 Z M 13.921875 6.574219 C 13.921875 6.660156 13.921875 6.742188 13.921875 6.910156 C 13.921875 10.085938 11.5 13.765625 7.070312 13.765625 C 5.734375 13.765625 4.480469 13.34375 3.394531 12.675781 C 3.558594 12.675781 3.8125 12.675781 3.980469 12.675781 C 5.066406 12.675781 6.152344 12.257812 6.988281 11.675781 C 5.902344 11.675781 5.066406 10.921875 4.730469 10.003906 C 4.898438 10.003906 5.066406 10.085938 5.148438 10.085938 C 5.398438 10.085938 5.566406 10.085938 5.820312 10.003906 C 4.734375 9.753906 3.898438 8.832031 3.898438 7.664062 C 4.230469 7.828125 4.566406 7.914062 4.984375 7.996094 C 4.3125 7.414062 3.898438 6.742188 3.898438 5.910156 C 3.898438 5.488281 3.980469 5.074219 4.230469 4.738281 C 5.402344 6.160156 7.15625 7.164062 9.160156 7.246094 C 9.160156 7.078125 9.078125 6.910156 9.078125 6.660156 C 9.078125 5.324219 10.164062 4.234375 11.5 4.234375 C 12.171875 4.234375 12.839844 4.488281 13.257812 4.988281 C 13.84375 4.902344 14.34375 4.652344 14.761719 4.402344 C 14.59375 4.988281 14.175781 5.40625 13.675781 5.738281 C 14.175781 5.65625 14.59375 5.574219 15.09375 5.320312 C 14.757812 5.824219 14.34375 6.242188 13.921875 6.574219 Z M 13.921875 6.574219 "/>
</g>
</svg>
